<?xml version="1.0" encoding="utf-8"?>
<!-- Generator: Adobe Illustrator 22.0.0, SVG Export Plug-In . SVG Version: 6.00 Build 0)  -->
<svg version="1.1" id="Layer_1" xmlns="http://www.w3.org/2000/svg" xmlns:xlink="http://www.w3.org/1999/xlink" x="0px" y="0px"
	 viewBox="0 0 570 644" style="enable-background:new 0 0 570 644;" xml:space="preserve">
<style type="text/css">
	.st0{fill:none;}
	.st1{fill:#F1F6F7;}
	.st2{fill:none;stroke:#F85D5D;stroke-width:15;}
	.st3{opacity:0.1605;fill:#F9A7A7;enable-background:new    ;}
	.st4{fill:#CE9886;}
	.st5{fill:#9E9E9E;}
	.st6{fill:#ABABAB;}
	.st7{fill:#D8D8D8;}
	.st8{fill:#C44949;}
	.st9{fill:url(#path-4_2_);}
	.st10{fill:url(#path-4_4_);fill-opacity:3.000000e-02;}
	.st11{fill:#F85D5D;}
	.st12{fill:#B9B9B9;}
	.st13{fill:#262626;}
	.st14{fill:#414141;}
	.st15{fill:none;stroke:#F85D5D;stroke-width:9.116;stroke-miterlimit:10;}
	.st16{fill:none;stroke:#F85D5D;stroke-width:9.116;stroke-linecap:round;stroke-miterlimit:10;}
	.st17{fill:none;stroke:#F85D5D;stroke-width:8.9492;stroke-linecap:round;stroke-miterlimit:10;}
</style>
<pattern  y="644" width="258" height="258" patternUnits="userSpaceOnUse" id="pattern-5" viewBox="0 -258 258 258" style="overflow:visible;">
	<g>
		<rect y="-258" class="st0" width="258" height="258"/>
		<g>
			
				<image style="overflow:visible;enable-background:new    ;" width="258" height="258" id="image-6_1_" xlink:href="B7B0778FD373CE39.png"  transform="matrix(1 0 0 -1 170.1091 -171.7033)">
			</image>
		</g>
	</g>
</pattern>
<title>Feature 04</title>
<desc>Created with Sketch.</desc>
<g id="Page-1">
	<g id="Feature-04">
		<path id="floor" class="st1" d="M50.2,569.4c53.5-40.9,381.1-40.2,427-19.4s32.8,93.5-141.2,93.5S-3.3,610.3,50.2,569.4z"/>
		<circle id="Oval-Copy-3" class="st2" cx="285" cy="285" r="277.5"/>
		<circle id="Oval-Copy-3_1_" class="st3" cx="285" cy="285" r="209"/>
		
			<g id="Illustration-Guy-Sitting" transform="translate(279.803405, 488.500000) scale(-1, 1) translate(-279.803405, -488.500000) translate(176.803405, 401.000000)">
			<path id="Path-2" class="st4" d="M121,21.8c-2.2,11.4,3.8,29.7,12,31.4s7.6-6.5,14.2-3.2c4.4,2.2,5.3,6.3,2.7,12.4l11.4-8.5
				c-3.1-6.1-4.7-11.5-4.7-16.2C156.6,30.5,123.2,10.4,121,21.8z"/>
			<path id="Path-7" class="st5" d="M66.2,146.4c1.8-1.2,10.4,4.9,12.4,7.2c2,2.3-3.4,13.5-7.3,14.5c-3.9,1-35.4-17.2-33.4-22.6
				c2-5.4,17.8,3.7,22,3.9C64.3,149.7,64.4,147.5,66.2,146.4z"/>
			<path id="Path-47" class="st4" d="M30.1,156.4c-5.7-0.8-10.2-1.8-13.6-3c-2.3,7.4-2.7,11.6-1.3,12.7c1.4,1.1,7.2,1.1,17.5,0
				C36.7,160.5,35.8,157.2,30.1,156.4z"/>
			<path id="Path-18" class="st6" d="M135,147.4c-6.4-2.6-22.3-20.7-25.3-20.7c-2,0-9.6,8.9-22.7,26.7l-22.3-2.2
				c19.1-35.9,30.9-53.8,35.1-53.8s25.6,8.7,63.9,26.2l-1.3,25.4C148.4,149.7,139.3,149.1,135,147.4z"/>
			<path id="Path-46" class="st7" d="M199.6,156.7c0,4.7,0.4,18.3-17.1,18.3s-61.3-2.6-86.2-2.6s-66.4-2.1-68.2-5.1
				c-1.7-3-1.3-12.3,1.7-13.6c3-1.3,58.7-8.5,80.6-8.5c14.6,0,33.3-1,56.2-3C188.6,148.8,199.6,153.6,199.6,156.7z"/>
			<path id="Path-45" class="st8" d="M104.9,103c-1.3-2.1-1.7-8.2,0-9s36.1,8.2,37.8,6c1.2-1.5-1.9-15.4,1.3-29.6
				c1.7-7.7,4.3-16.2,9.9-18.5c18.9-7.7,44.3,15,49,40.4s4.3,62.7-3,67.4c-7.3,4.7-27.1-0.9-33.9-6.9c-6.9-6-5.2-18.5-3.4-29.6
				C164.2,112,106.2,105.1,104.9,103z"/>
			
				<g id="Path-9" transform="translate(97.532237, 95.933521) scale(1, -1) rotate(-60.000000) translate(-97.532237, -95.933521) ">
				<g>
					
						<linearGradient id="path-4_2_" gradientUnits="userSpaceOnUse" x1="303.3917" y1="217.6598" x2="302.3917" y2="216.8055" gradientTransform="matrix(-9.6413 -16.6915 -16.6992 9.6369 6668.1089 3070.7969)">
						<stop  offset="0" style="stop-color:#C6DBF7"/>
						<stop  offset="1" style="stop-color:#E1EDFF"/>
					</linearGradient>
					<path id="path-4" class="st9" d="M106.3,104.9c-4.3,3.7-17.8-7.9-18.4-14.8c-0.5-6.9,7,4.8,9.2,2.6c2.2-2.1-3.8-5.3-1.6-6.3
						S110.6,101.2,106.3,104.9z"/>
				</g>
				<g>
					<pattern  id="path-4_4_" xlink:href="#pattern-5" patternTransform="matrix(-0.5 0.866 0.866 0.5 -3688.0916 2634.1082)">
					</pattern>
					<path id="path-4_1_" class="st10" d="M106.3,104.9c-4.3,3.7-17.8-7.9-18.4-14.8c-0.5-6.9,7,4.8,9.2,2.6
						c2.2-2.1-3.8-5.3-1.6-6.3S110.6,101.2,106.3,104.9z"/>
				</g>
			</g>
			<path id="Path-44" class="st11" d="M162.7,56c14.6,0.9,12,33.5,9,43.8c-3,10.3-6,22.7-9,24c-3,1.3-54.5-9-55.8-11.2
				c-1.3-2.1-0.9-10.3,1.3-10.3c2.1,0,36.1,3.4,37.8,1.7c1.7-1.7-0.4-16.7,0-24S148.1,55.1,162.7,56z"/>
			<path id="Path-7_1_" class="st12" d="M18.5,152.6c1.9,1,1,11.6,0,14.5s-13.3,3.9-16.2,1c-2.9-2.9-2.9-39.6,2.9-40.6
				s5.7,17.4,7.6,21.2C14.7,152.6,16.6,151.6,18.5,152.6z"/>
			<path id="Path-48" class="st13" d="M117.1,3.8c1.1,3.2,2.6,4.7,4.3,4.7c2.6,0,17.2-15.5,29.2-4.7s9.9,40.1,6.4,40.1
				s-6.4-3.9-9-7.8c-2.6-3.9-0.7-8.2-4.3-8.2s-1.3,6.5-3.9,6.5c-2.6,0-2.6-11.5-7.3-12.6c-4.7-1.2-7.7,6.6-13.3,6.6
				c-5.6,0-9-6-9-11.7C110.2,13,112.5,8.7,117.1,3.8z"/>
			<path id="Path-10" class="st14" d="M93.1,98.7c-5.6-5.4-8.3-8.8-8.4-10.4c0-2.3,1.7-5.9,3.4-5.3c1.2,0.4,5.9,5.2,14.3,14.4
				l-2.2,5.9L93.1,98.7z"/>
			<path id="Path-9_1_" class="st4" d="M108.9,110.6c-4.5,4-19.2-8.1-19.9-15.5c-0.7-7.3,7.6,5,9.8,2.7c2.3-2.3-4.1-5.6-1.8-6.7
				S113.4,106.5,108.9,110.6z"/>
		</g>
	</g>
</g>
<g>
	<polygon class="st11" points="380,329.8 294.5,379.8 294.6,341.5 347.5,311 	"/>
</g>
<g>
	<polygon class="st11" points="284.3,379.6 198.4,330.2 231.7,311.3 284.5,342 	"/>
</g>
<g>
	<polygon class="st11" points="193.9,321.5 194.8,222.4 227.6,242.2 226.7,303.2 	"/>
</g>
<g>
	<polygon class="st11" points="199.2,214.3 284.4,163.7 284.5,202 231.8,232.9 	"/>
</g>
<g>
	<polygon class="st11" points="295.4,164 381,213.9 347.6,232.6 295,201.6 	"/>
</g>
<g>
	<line class="st15" x1="299.5" y1="156" x2="299.8" y2="200.2"/>
</g>
<g>
	<line class="st15" x1="279.6" y1="389.1" x2="279.8" y2="344.8"/>
</g>
<g>
	<line class="st16" x1="196.2" y1="207.7" x2="230.7" y2="227"/>
</g>
<g>
	<line class="st15" x1="185" y1="321.3" x2="223.7" y2="299.6"/>
</g>
<circle class="st11" cx="298.8" cy="148.5" r="10.7"/>
<circle class="st11" cx="188.8" cy="201.2" r="10.7"/>
<circle class="st11" cx="178.7" cy="325.4" r="10.7"/>
<circle class="st11" cx="280.2" cy="396.6" r="10.7"/>
<g>
	<line class="st17" x1="287.5" y1="252.3" x2="287.5" y2="289.9"/>
</g>
<circle class="st11" cx="287.5" cy="256.3" r="10.1"/>
</svg>
